<svg xmlns="http://www.w3.org/2000/svg" viewBox="0 0 512 512">
    <defs>
        <style>
            .cls-1 {
                fill: url(#GradientFill_1-2);
            }

            .cls-1, .cls-2 {
                fill-rule: evenodd;
            }

            .cls-2 {
                fill: url(#GradientFill_1);
            }
        </style>
        <linearGradient id="GradientFill_1" data-name="GradientFill 1" x1="252.07" y1="287.4" x2="398.04" y2="442.42" gradientUnits="userSpaceOnUse">
            <stop offset="0" stop-color="#f06324"/>
            <stop offset="1" stop-color="#ffce09"/>
        </linearGradient>
        <linearGradient id="GradientFill_1-2" data-name="GradientFill 1" x1="201.02" y1="402.08" x2="266.1" y2="297.52" xlink:href="#GradientFill_1"/>
    </defs>
    <path class="cls-2" d="m338.81,146.78c35.5,54.61,66.55,112.11,72.13,166.93,1,9.81,1.02,19.43.18,28.79h.01s7.81-19.74,7.81-19.74c-1.87,42.95-3.87,69.69-31.67,104.82l10.77-4.75s-4.12,14.57-38.95,37.05c-6.56,4.24-13.44,7.88-20.27,11.01v-51.58c17.19-15.47,28.01-37.9,28.01-62.84s-10.81-47.37-28.01-62.85v-17.14c1,2.38,1.73,4.83,2.14,7.32l11.01-5.04h0s16.58.13,16.58.13c0,0-11.21-11.33-12.65-15.93h0c-3.99-12.99-10.54-30.49-5.87-34.55-4.19-5.04-7.85-8.63-11.21-11.7v-69.93h0Zm0,91.67c.98.15,2.19.14,3.68-.07l-3.68-6.6v6.68ZM252.44,18.72c23.64,38.43,56.57,82.23,86.37,128.06v69.93c-10.85-9.93-18.45-14.47-29.89-45.62l3.02,32.25h0s-20.77-8.99-39.1-12.07c-7.89-1.33-17.64-1.73-26.19-1.75V25.72l5.8-7h0Zm86.37,452.17c-29.43,13.47-58.11,17.33-58.11,17.33l9.18,5.07s-20.32.23-43.24-3.53v-31.16c7.54,1.34,15.3,2.04,23.22,2.04,8.88,0,17.57-.88,25.96-2.56-2.34.16-4.7.24-7.08.24-14.98,0-29.22-3.15-42.1-8.82v-16.39c10.83,5.05,22.91,7.87,35.65,7.87,21.73,0,41.55-8.2,56.52-21.68v51.58h0Zm0-239.11v6.68c-6.96-1.06-1.91-10.11-1.91-10.11l1.91,3.43h0Zm0,44.7c-5.97-14.15-21.93-25.64-42.62-27.16-2.46-.17-4.94-.26-7.45-.26-14.98,0-29.22,3.15-42.1,8.82v160.37c4.78.99,9.73,1.5,14.8,1.5,40.29,0,72.95-32.66,72.95-72.95s-31.26-71.53-70.34-72.9c5.87-1.29,11.97-1.98,18.24-1.98,21.73,0,41.55,8.2,56.52,21.68v-17.14Zm-92.17,213.28c-10.02-1.64-20.53-4.04-30.06-7.56-21.37-7.88-39.64-18.29-49.11-24.12-1.47-.9-2.93-1.81-4.37-2.76-1.66-1.08-2.55-1.69-2.55-1.69h0c-41.78-28.38-69.68-75.49-67.33-129.79.97-22.45,6.49-45.41,15.08-68.5l.02-.06c.89-2.74,2.21-6.09,3.86-9.88,11.67-28.56,27.7-57.22,45.34-85.24v-.02s-19.78,5.56-19.78,5.56l67.6-76.75-8.39-3.21,49.69-60.01v163.79c-11.31-.03-20.51.59-20.51.59l12.55,5.02c-29.72,8.67-74.31,25.76-91.09,53.07l9.65-4.05c-17.27,25.16-33.77,63.68-32.42,94.56l8.3-13.51s2.52,44.08,22.94,70.43l.04.05c19.22,32.52,51.99,56.09,90.55,62.93v31.16h0Zm0-231.88c-36.82,16.2-62.53,53-62.53,95.81s25.71,79.61,62.53,95.81v-16.39c-16.73-7.79-30.48-20.9-39.09-37.15,10.17,11.14,23.75,19.12,39.09,22.28v-160.37Z"/>
    <path class="cls-1" d="m398.03,422.83s-4.12,14.57-38.95,37.05c-34.84,22.48-78.37,28.34-78.37,28.34l9.18,5.07s-41.96.47-73.31-11.08c-21.37-7.88-39.64-18.29-49.11-24.12-1.47-.9-2.93-1.81-4.37-2.76-1.66-1.08-2.55-1.69-2.55-1.69h0c-41.78-28.38-69.68-75.49-67.33-129.79.97-22.45,6.49-45.41,15.08-68.5l.02-.06c.89-2.74,2.21-6.09,3.86-9.88,11.67-28.56,27.7-57.22,45.34-85.24v-.02s-19.78,5.56-19.78,5.56l67.6-76.75-8.39-3.21,55.49-67.01-45.88,132.35,28.08-16.56s-14.37,28.95-20.59,68.81c-25.8,9.75-53.91,24.45-66.46,44.87l9.65-4.05c-17.27,25.16-33.77,63.68-32.42,94.56l8.3-13.51s2.52,44.08,22.94,70.43l.04.05c22.98,38.89,65.33,64.97,113.77,64.97,8.88,0,17.57-.88,25.96-2.56-2.34.16-4.7.24-7.08.24-57.79,0-104.64-46.85-104.64-104.64,0-29.29,12.04-55.76,31.43-74.75,3,13.38,7.74,26.82,14.77,39.87,28.4,52.73,61.02,73.02,81.45,80.81-13.09,12.48-30.81,20.13-50.32,20.13-21.35,0-40.55-9.17-53.89-23.79,14.18,26.78,42.33,45.02,74.74,45.02,17.59,0,33.93-5.37,47.46-14.57,19.71,7.05,48.61,12.79,68.28-3.58Z"/>
</svg>
